<svg width="51" height="57" viewBox="0 0 51 57" fill="none" xmlns="http://www.w3.org/2000/svg">
<path d="M4.86993 36.4184V38.6709C4.87011 39.1492 4.98584 39.6204 5.20727 40.0444C5.42871 40.4687 5.74927 40.8328 6.1417 41.1064L15.0696 32.1782L12.5945 29.703C12.5283 29.6369 12.4496 29.5844 12.3631 29.5485C12.2766 29.5126 12.1839 29.4942 12.0902 29.4942C11.9966 29.4942 11.9039 29.5126 11.8174 29.5485C11.7309 29.5844 11.6523 29.6369 11.586 29.703L4.86993 36.4184Z" fill="black"/>
<path d="M12.0895 26.7805C12.3888 26.7797 12.6853 26.8381 12.9618 26.9529C13.2383 27.0674 13.4893 27.2358 13.7002 27.4479L16.7491 30.4967L23.0089 24.2369C23.6582 23.5887 24.5382 23.2246 25.4557 23.2246C26.3731 23.2246 27.2532 23.5887 27.9024 24.2369L36.6064 32.9409L39.2966 30.2508C39.7242 29.8242 40.3032 29.5847 40.9073 29.5847C41.5112 29.5847 42.0905 29.8242 42.5178 30.2508L46.0416 33.7774V18.3304C46.0416 17.8088 45.9043 17.2964 45.6432 16.8447C45.3824 16.393 45.0073 16.0179 44.5557 15.7571L26.9414 5.58731C26.4897 5.32647 25.977 5.18914 25.4554 5.18914C24.9337 5.18914 24.4212 5.32647 23.9694 5.58731L6.35488 15.7571C5.90316 16.0179 5.52803 16.393 5.26719 16.8447C5.00634 17.2964 4.86899 17.8088 4.86889 18.3304V33.0565L10.4777 27.4477C10.6889 27.2353 10.9401 27.0669 11.2167 26.9527C11.4934 26.8381 11.7901 26.7795 12.0895 26.7805Z" fill="black"/>
<path d="M38.2869 34.6229L44.7688 41.1061C45.1613 40.8325 45.4818 40.4682 45.7032 40.0442C45.9245 39.6201 46.0401 39.149 46.0404 38.6707V37.1386L41.4095 32.5077C41.2757 32.3739 41.0943 32.2989 40.9053 32.2989C40.7159 32.2989 40.5345 32.3739 40.4008 32.5077L38.2869 34.6229Z" fill="black"/>
<path d="M26.2215 25.9191C26.0183 25.7162 25.7431 25.6024 25.4561 25.6024C25.169 25.6024 24.8937 25.7162 24.6907 25.9191L8.26388 42.3449L23.9692 51.413C24.421 51.6738 24.9335 51.8111 25.4552 51.8111C25.9768 51.8111 26.4895 51.6738 26.9411 51.413L42.6465 42.3449L26.2215 25.9191Z" fill="black"/>
<path d="M25.4559 2.45751C26.0385 2.45735 26.6111 2.61067 27.1156 2.90202L46.7944 14.2636C47.2991 14.555 47.718 14.9741 48.0093 15.4787C48.3006 15.9834 48.4541 16.5558 48.4541 17.1385V39.8617C48.4541 40.4444 48.3006 41.0167 48.0093 41.5214C47.718 42.0259 47.2991 42.445 46.7944 42.7364L27.1156 54.098C26.6109 54.3893 26.0385 54.5427 25.4558 54.5427C24.8731 54.5427 24.3006 54.3893 23.796 54.098L4.1172 42.7364C3.61258 42.445 3.19353 42.0259 2.9022 41.5214C2.61087 41.0167 2.4575 40.4444 2.45751 39.8617V17.1385C2.4575 16.5558 2.61087 15.9834 2.9022 15.4787C3.19356 14.9741 3.61258 14.555 4.1172 14.2636L23.796 2.90202C24.3007 2.61069 24.8732 2.45738 25.4559 2.45751ZM25.4559 0C24.4419 0.000396002 23.4458 0.26731 22.5675 0.773992L2.88844 12.1356C2.01134 12.6439 1.28295 13.3734 0.776085 14.2513C0.269219 15.1292 0.0016105 16.1248 0 17.1385V39.8617C0.00166233 40.8755 0.269324 41.8712 0.776234 42.7489C1.28315 43.6269 2.01156 44.3563 2.8887 44.8646L22.5675 56.2263C23.4457 56.7333 24.4419 57 25.4559 57C26.47 57 27.4661 56.7333 28.3444 56.2263L48.0231 44.8646C48.9004 44.3566 49.629 43.6269 50.136 42.7492C50.6431 41.8712 50.9108 40.8755 50.9126 39.8617V17.1385C50.9111 16.1248 50.6433 15.1292 50.1366 14.2513C49.6295 13.3734 48.9011 12.6439 48.0242 12.1356L28.3454 0.773992C27.4671 0.267344 26.471 0.000432039 25.4569 0H25.4559Z" fill="black"/>
</svg>
